# xmcd
#
# Track frame offsets:
#	150
#	23845
#	40029
#	61210
#	80379
#	110623
#	126251
#	149011
#	170306
#	179699
#	200801
#	221038
#	237086
#	255746
#
# Disc length: 3698 seconds
#
# Revision: 1
# Processed by: cddbd v1.4PL0 Copyright (c) Steve Scherf et al.
# Submitted via: EasyCDDAExtractor 5.0.6
#
DISCID=cf0e700e
DTITLE=Tilman Rosmy Quartett - Seitdem man mich...
DYEAR=2003
DGENRE=Country
TTITLE0=Augen nicht auf
TTITLE1=Der Stoff
TTITLE2=Junkie
TTITLE3=Adieu meine Liebe
TTITLE4=Du bist es
TTITLE5=Wenn die Nachtigall singt
TTITLE6=Hör auf die Flöte
TTITLE7=Auf den Wein
TTITLE8=Komm füll die Gläser
TTITLE9=Nchts als Nichts
TTITLE10=Chartres
TTITLE11=Den süßen Duft der Liebe zu verbreiten
TTITLE12=Schiff in der Wüste
TTITLE13=Mango Papaya
EXTD=
EXTT0=
EXTT1=
EXTT2=
EXTT3=
EXTT4=
EXTT5=
EXTT6=
EXTT7=
EXTT8=
EXTT9=
EXTT10=
EXTT11=
EXTT12=
EXTT13=
PLAYORDER=
